<?xml version="1.0" encoding="UTF-8" standalone="no"?>
<!-- Created with Inkscape (http://www.inkscape.org/) -->

<svg
   width="87.957115mm"
   height="116.73636mm"
   viewBox="0 0 87.957115 116.73636"
   version="1.1"
   id="svg1"
   xml:space="preserve"
   xmlns="http://www.w3.org/2000/svg"
   xmlns:svg="http://www.w3.org/2000/svg"><defs
     id="defs1" /><g
     id="layer1"
     transform="translate(-51.695713,-65.563468)"><g
       id="g12"
       transform="translate(19.579174,-17.197917)"><path
         id="rect1"
         style="fill:#181f8b;fill-opacity:1;stroke:#000000;stroke-width:0.410001;stroke-opacity:0"
         d="M 43.519307,82.966512 C 34.671228,82.945705 32.321541,85.461774 32.321541,94.164278 V 187.5653 c 0,8.40852 1.76031,11.72744 11.197766,11.72744 h 65.151583 c 9.58445,0 11.19776,-3.84599 11.19776,-11.72744 V 94.164278 c 0,-3.785825 -2.01259,-5.349709 -4.72529,-5.16971 v 98.201242 c 0.0237,6.11365 -1.06606,7.79022 -6.28644,7.79022 H 40.646098 c -1.116258,0 -2.014864,-0.89861 -2.014864,-2.01486 v -0.56328 c 0,-1.11625 0.898606,-2.01486 2.014864,-2.01486 h 64.407952 c 4.98299,0 5.89008,-0.63332 5.89008,-7.07244 0,-16.4345 0.003,-76.52628 0.003,-94.391134 2.8e-4,-4.266309 -1.7909,-5.80882 -4.92218,-5.816183 z m 27.988473,3.383256 a 5.35781,5.35781 0 0 1 5.357812,5.357813 5.35781,5.35781 0 0 1 -3.638537,5.06274 V 107.33247 H 83.782483 V 95.367822 c 0,-0.591873 0.327342,-1.104299 0.811837,-1.366841 0.114889,-0.131127 0.252431,-0.246002 0.413928,-0.335897 l 5.225004,-2.908867 c 0.235069,-0.130849 0.489026,-0.194565 0.73949,-0.197404 0.551021,-0.0062 1.086208,0.282283 1.374076,0.799435 l 0.279053,0.501261 c 0.418717,0.752221 0.15019,1.694849 -0.602031,2.113566 l -4.599719,2.560051 v 10.799344 h 10.502718 c 2.018591,0 3.643701,1.62511 3.643701,3.6437 v 8.55814 4.66793 h 3.82974 c 0.86091,0 1.55392,0.693 1.55392,1.55391 v 0.57361 c 0,0.8609 -0.69301,1.55391 -1.55392,1.55391 h -3.82974 v 0.78238 5.86114 h 5.85908 c 0.87169,0 1.57355,0.70185 1.57355,1.57355 v 0.58032 c 0,0.8717 -0.70186,1.57355 -1.57355,1.57355 h -5.85908 v 3.23805 3.68091 0.28732 h 3.79977 c 0.86091,0 1.55391,0.693 1.55391,1.55391 v 0.57361 c 0,0.8609 -0.693,1.55391 -1.55391,1.55391 h -3.79977 v 11.75794 1.29087 c 0,2.01859 -1.62511,3.64371 -3.643701,3.64371 H 87.424121 v 10.58592 l 4.024044,3.04684 c 0.686407,0.51962 0.820893,1.4902 0.301273,2.17661 l -0.346232,0.45734 c -0.519619,0.6864 -1.49072,0.82037 -2.177128,0.30075 l -4.767667,-3.60908 c -0.40115,-0.30367 -0.611787,-0.76172 -0.615467,-1.2268 -0.02021,-0.10032 -0.06046,-0.19329 -0.06046,-0.29972 V 165.83484 H 73.400171 v 11.36365 a 5.3360758,5.3360758 0 0 1 3.465421,4.99607 5.3360758,5.3360758 0 0 1 -5.336108,5.33611 5.3360758,5.3360758 0 0 1 -5.336108,-5.33611 5.3360758,5.3360758 0 0 1 3.581693,-5.02656 v -11.33316 h -9.856246 v 11.43186 c 0,0.23543 -0.06005,0.45304 -0.152962,0.65267 -0.08903,0.31326 -0.276267,0.60185 -0.557072,0.81442 l -4.767668,3.60909 c -0.686407,0.51961 -1.657508,0.38565 -2.177128,-0.30076 l -0.345715,-0.45682 c -0.51962,-0.68641 -0.385134,-1.65751 0.301274,-2.17713 l 4.05815,-3.07268 v -10.50065 h -9.565825 c -2.018591,0 -3.643705,-1.62512 -3.643705,-3.64371 v -13.22141 h -4.798157 c -0.860906,0 -1.55391,-0.69301 -1.55391,-1.55391 v -0.57309 c 0,-0.86091 0.693004,-1.55391 1.55391,-1.55391 h 4.798157 v -7.13962 h -6.526733 c -0.850497,0 -1.535307,-0.68481 -1.535307,-1.53531 v -0.56637 c 0,-0.8505 0.68481,-1.53531 1.535307,-1.53531 h 6.526733 v -6.77788 h -4.577498 c -0.860907,0 -1.55391,-0.693 -1.55391,-1.55391 v -0.57361 c 0,-0.8609 0.693003,-1.55391 1.55391,-1.55391 h 4.577498 v -13.07672 c 0,-2.01859 1.625114,-3.6437 3.643705,-3.6437 h 9.565825 V 96.549662 L 52.077958,94.21182 c -0.75222,-0.418717 -1.020748,-1.361345 -0.60203,-2.113566 l 0.278536,-0.500744 c 0.287868,-0.517152 0.823572,-0.80568 1.374593,-0.799435 0.250464,0.0028 0.503904,0.06656 0.738973,0.197404 l 5.225004,2.90835 c 0.533093,0.296742 0.821569,0.856471 0.796334,1.425236 0.01925,0.09804 0.02997,0.19949 0.02997,0.303341 v 11.700064 h 9.666077 V 96.694873 a 5.35781,5.35781 0 0 1 -3.43545,-4.987292 5.35781,5.35781 0 0 1 5.357813,-5.357813 z m 35.64847,56.614632 c 0.002,0.0288 0.0165,0.053 0.0165,0.0822 v 0.57309 c 0,0.0292 -0.015,0.0534 -0.0165,0.0822 z" /><path
         id="rect3-2"
         style="fill:#181f8b;fill-opacity:1;stroke:#000000;stroke-width:0.358852;stroke-opacity:0"
         d="m 49.906514,110.98186 c -1.766764,0 -3.188952,1.42218 -3.188952,3.18895 v 44.82569 c 0,1.76676 1.422188,3.18947 3.188952,3.18947 h 44.825688 c 1.766764,0 3.188953,-1.42271 3.188953,-3.18947 v -44.82569 c 0,-1.76677 -1.422189,-3.18895 -3.188953,-3.18895 z m 11.833387,5.71799 h 7.667749 l 14.379484,39.77122 H 75.899243 L 72.763517,147.437 H 58.408321 l -2.963643,9.03407 h -7.692037 z m 25.672335,0 h 7.251236 v 39.77122 h -7.251236 z m -21.924244,9.27799 -4.85035,14.75827 h 9.798886 z" /><circle
         style="fill:#181f8b;fill-opacity:1;stroke:#000000;stroke-width:0.332579;stroke-opacity:0"
         id="path3"
         cx="71.592621"
         cy="182.14246"
         r="2.0574198" /><circle
         style="fill:#181f8b;fill-opacity:1;stroke:#000000;stroke-width:0.147107;stroke-opacity:0"
         id="path12"
         cx="71.507782"
         cy="91.707573"
         r="1.9223672" /></g></g></svg>
